<svg width="46" height="31" viewBox="0 0 46 31" fill="none" xmlns="http://www.w3.org/2000/svg">
<path d="M22.4854 0.379008L22.7182 1.31077C22.8202 1.71906 23.3922 1.74112 23.5254 1.3419C23.6775 0.885892 24.3225 0.885892 24.4746 1.3419L25.0143 2.96095C25.1082 3.24275 25.4659 3.32718 25.6759 3.11714C25.7509 3.0422 25.8525 3.0001 25.9585 3.0001H26.25C26.6642 3.0001 27 2.66431 27 2.2501C27 1.83589 27.3358 1.5001 27.75 1.5001H43C44.6569 1.5001 46 2.84325 46 4.5001V26.5001C46 28.157 44.6569 29.5001 43 29.5001H27.75C27.3358 29.5001 27 29.1643 27 28.7501C27 28.3359 26.6642 28.0001 26.25 28.0001H26.0472C25.637 28.0001 25.2729 28.2626 25.1432 28.6517L24.4746 30.6583C24.3164 31.133 23.6361 31.1066 23.5146 30.6212L23.2818 29.6894C23.1798 29.2811 22.6078 29.2591 22.4746 29.6583C22.3225 30.1143 21.6775 30.1143 21.5254 29.6583L20.9857 28.0393C20.8918 27.7575 20.5341 27.673 20.3241 27.8831C20.2491 27.958 20.1475 28.0001 20.0415 28.0001H19.75C19.3358 28.0001 19 28.3359 19 28.7501C19 29.1643 18.6642 29.5001 18.25 29.5001H3C1.34315 29.5001 0 28.157 0 26.5001V4.5001C0 2.84325 1.34315 1.5001 3 1.5001H18.25C18.6642 1.5001 19 1.83589 19 2.2501C19 2.66431 19.3358 3.0001 19.75 3.0001H19.9528C20.363 3.0001 20.7271 2.73762 20.8568 2.34849L21.5254 0.341898C21.6836 -0.132828 22.3639 -0.106424 22.4854 0.379008ZM24 22.0001C24 23.3808 22.8807 24.5001 21.5 24.5001H20.25C19.5596 24.5001 19 25.0597 19 25.7501V26.4394C19 26.7491 19.251 27.0001 19.5607 27.0001C19.7094 27.0001 19.852 26.941 19.9572 26.8359L20.6067 26.1864C20.8879 25.9052 21.3667 26.0182 21.4925 26.3955L21.5017 26.4232C21.6613 26.9021 22.3387 26.9021 22.4983 26.4232L22.5253 26.3423C22.6835 25.8674 23.3638 25.8935 23.4854 26.379L23.7186 27.3113C23.8207 27.7194 24.3926 27.7411 24.5254 27.3419C24.5936 27.1377 24.7848 27.0001 25 27.0001H25.6278C26.3856 27.0001 27 26.3857 27 25.6279V24.7501C27 23.5075 28.0074 22.5001 29.25 22.5001H36C37.6569 22.5001 39 21.157 39 19.5001V11.5001C39 9.84325 37.6569 8.5001 36 8.5001H27C25.3431 8.5001 24 9.84325 24 11.5001V22.0001ZM21.4746 3.6583C21.4064 3.86246 21.2152 4.0001 21 4.0001H20.3722C19.6144 4.0001 19 4.61446 19 5.37231V6.2501C19 7.49274 17.9926 8.5001 16.75 8.5001H10C8.34315 8.5001 7 9.84325 7 11.5001V19.5001C7 21.157 8.34315 22.5001 10 22.5001H19C20.6569 22.5001 22 21.157 22 19.5001V9.0001C22 7.61939 23.1193 6.5001 24.5 6.5001H25.75C26.4404 6.5001 27 5.94046 27 5.2501V4.56081C27 4.25114 26.749 4.0001 26.4393 4.0001C26.2906 4.0001 26.148 4.05918 26.0428 4.16433L25.3933 4.81381C25.1121 5.09502 24.6333 4.98198 24.5075 4.6047L24.4983 4.57697C24.3387 4.09812 23.6613 4.09812 23.5017 4.57697L23.4747 4.65793C23.3165 5.13277 22.6362 5.10674 22.5146 4.6212L22.2814 3.68895C22.1793 3.28082 21.6074 3.2591 21.4746 3.6583Z" fill="#2EBCFE"/>
</svg>
